# xmcd
#
# Track frame offsets:
#	150
#	15950
#	34092
#	51291
#	64970
#	83001
#	99052
#	116618
#	132235
#	149762
#	163810
#	182567
#	199585
#	202309
#	204012
#	206391
#	208599
#	210073
#	212044
#	214722
#	218246
#	220590
#	223113
#	226032
#	228229
#	232950
#	235822
#	237898
#	239930
#
# Disc length: 3219
#
# Revision: 1
# Processed by: cddbd v1.5.1PL0 Copyright (c) Steve Scherf et al.
# Submitted via: VisiTrax 2.9.5.180 - For more info visit www.synapsa.com
# Normalized: r0:DSETVAR1
#
DISCID=a20c911d
DTITLE=Various Artist - CDX 194 August 1998
DYEAR=1998
DGENRE=
TTITLE0=Trisha Yearwood - Where your road leads
TTITLE1=Monty Holmes - Alone
TTITLE2=Michael Martin Murphy - Born to buck bad luck
TTITLE3=Derailers - California angel
TTITLE4=Warren Brothers - Guilty
TTITLE5=Allison Moorer - Set you free
TTITLE6=Billy Joe Rayal - Stay close to home
TTITLE7=T G Sheppard - (There ain't nothin')Like a coupe deville
TTITLE8=Lila McCann - To get me to you
TTITLE9=Valerie Smith - Red clay halo
TTITLE10=Bill Anderson/Ra Clark/Eddy Arnold/Jean Shepard/Steve Wariner - The tips of my fingers
TTITLE11=Bill Anderson - No fair falling in love
TTITLE12=Jeff Foxworthy - Comedy Spotlight
TTITLE13=Jeff Foxworthy - Comedy Spotlight
TTITLE14=Jeff Foxworthy - Comedy Spotlight
TTITLE15=Jeff Foxworthy - Comedy Spotlight
TTITLE16=Jeff Foxworthy - Comedy Spotlight
TTITLE17=Jeff Foxworthy - Comedy Spotlight
TTITLE18=Jeff Foxworthy - Comedy Spotlight
TTITLE19=Jeff Foxworthy - Comedy Spotlight
TTITLE20=Jeff Foxworthy - Comedy Spotlight
TTITLE21=Jeff Foxworthy - Comedy Spotlight
TTITLE22=Jeff Foxworthy - Comedy Spotlight
TTITLE23=Jeff Foxworthy - Comedy Spotlight
TTITLE24=Jeff Foxworthy - Comedy Spotlight
TTITLE25=Jeff Foxworthy - Comedy Spotlight
TTITLE26=Jeff Foxworthy - Comedy Spotlight
TTITLE27=Jeff Foxworthy - Comedy Spotlight
TTITLE28=Jeff Foxworthy - Comedy Spotlight
EXTD=
EXTT0=
EXTT1=
EXTT2=
EXTT3=
EXTT4=
EXTT5=
EXTT6=
EXTT7=
EXTT8=
EXTT9=
EXTT10=
EXTT11=
EXTT12=
EXTT13=
EXTT14=
EXTT15=
EXTT16=
EXTT17=
EXTT18=
EXTT19=
EXTT20=
EXTT21=
EXTT22=
EXTT23=
EXTT24=
EXTT25=
EXTT26=
EXTT27=
EXTT28=
PLAYORDER=
